<svg xmlns="http://www.w3.org/2000/svg" viewBox="0 0 50.036 50.035"><defs><style>.a,.b{fill:#fff;}.b{fill-rule:evenodd;}</style></defs><g transform="translate(0 0)"><path class="a" d="M25.03,0A25.016,25.016,0,1,1,7.345,7.326,25.017,25.017,0,0,1,25.03,0ZM41.35,8.716A23.1,23.1,0,1,0,48.1,25.021,23.1,23.1,0,0,0,41.35,8.716Z" transform="translate(-0.017 0)"/><path class="b" d="M45.607,31.915V29.863a1.076,1.076,0,0,1,1.122-1.218H49.6V24.27H45.647c-4.391,0-5.371,3.239-5.371,5.346v2.3H37.75v5.113h2.577V49.8h5.088V37.028h3.779l.167-2.021.308-3.1Z" transform="translate(-18.684 -12.007)"/></g></svg>