<svg xmlns="http://www.w3.org/2000/svg" viewBox="0 0 50.036 50.035"><defs><style>.a,.b{fill:#fff;}.b{fill-rule:evenodd;}</style></defs><g transform="translate(18)"><g transform="translate(-18 0)"><path class="a" d="M25.03,0A25.016,25.016,0,1,1,7.345,7.326,25.017,25.017,0,0,1,25.03,0ZM41.35,8.716A23.1,23.1,0,1,0,48.1,25.021,23.1,23.1,0,0,0,41.35,8.716Z" transform="translate(-0.017 0)"/><path class="b" d="M30.839,37.241a6.407,6.407,0,1,1,6.4,6.412,6.407,6.407,0,0,1-6.4-6.412ZM43.86,24.7H30.632A5.952,5.952,0,0,0,24.7,30.632V43.86a5.957,5.957,0,0,0,5.932,5.932H43.86a5.942,5.942,0,0,0,5.932-5.932V30.632A5.937,5.937,0,0,0,43.86,24.7ZM30.632,26.186H43.86a4.457,4.457,0,0,1,4.451,4.446V43.86a4.451,4.451,0,0,1-4.451,4.446H30.632a4.451,4.451,0,0,1-4.446-4.446V30.632A4.451,4.451,0,0,1,30.632,26.186Zm14.547,1.87a1.3,1.3,0,1,0,.923.38,1.3,1.3,0,0,0-.923-.38Zm.152,9.186a8.084,8.084,0,1,0-8.084,8.084A8.084,8.084,0,0,0,45.33,37.241Z" transform="translate(-12.228 -12.22)"/></g></g></svg>