<svg xmlns="http://www.w3.org/2000/svg" viewBox="0 0 50.046 50.045"><defs><style>.a,.b{fill:#fff;}.b{fill-rule:evenodd;}</style></defs><g transform="translate(0)"><path class="a" d="M25.027,0A25.021,25.021,0,1,1,7.342,7.327,25.023,25.023,0,0,1,25.027,0ZM41.332,8.716a23.061,23.061,0,1,0,6.761,16.32,23.061,23.061,0,0,0-6.761-16.32Z" transform="translate(-0.011)"/><path class="b" d="M49.787,31.712a11.424,11.424,0,0,1-3.032.819,5.194,5.194,0,0,0,2.314-2.87,10.7,10.7,0,0,1-3.34,1.263,5.26,5.26,0,0,0-9.095,3.537,5.517,5.517,0,0,0,.152,1.177,14.88,14.88,0,0,1-10.762-5.412,5.255,5.255,0,0,0-.717,2.592,5.144,5.144,0,0,0,2.35,4.295,5.088,5.088,0,0,1-2.37-.637v.071a4.83,4.83,0,0,0,.349,1.854,5.23,5.23,0,0,0,3.85,3.188,5.265,5.265,0,0,1-1.384.192,4.547,4.547,0,0,1-.985-.111A5.29,5.29,0,0,0,32,45.3a10.611,10.611,0,0,1-6.5,2.2c-.429,0-.829-.03-1.258-.071a15.113,15.113,0,0,0,8.034,2.314A14.581,14.581,0,0,0,46.836,38.19a14.36,14.36,0,0,0,.344-3.112v-.692A10.828,10.828,0,0,0,49.787,31.712Z" transform="translate(-11.998 -14.477)"/></g></svg>